<?xml version="1.0" encoding="UTF-8" standalone="no"?>
<svg
   width="8px"
   height="8px"
   viewBox="0 0 8 8"
   version="1.1"
   id="svg4"
   sodipodi:docname="reload.svg"
   inkscape:version="1.1.1 (3bf5ae0d25, 2021-09-20)"
   xmlns:inkscape="http://www.inkscape.org/namespaces/inkscape"
   xmlns:sodipodi="http://sodipodi.sourceforge.net/DTD/sodipodi-0.dtd"
   xmlns="http://www.w3.org/2000/svg"
   xmlns:svg="http://www.w3.org/2000/svg">
  <defs
     id="defs8" />
  <sodipodi:namedview
     id="namedview6"
     pagecolor="#505050"
     bordercolor="#eeeeee"
     borderopacity="1"
     inkscape:pageshadow="0"
     inkscape:pageopacity="0"
     inkscape:pagecheckerboard="0"
     showgrid="false"
     inkscape:zoom="81.5"
     inkscape:cx="4"
     inkscape:cy="4.006135"
     inkscape:window-width="1600"
     inkscape:window-height="837"
     inkscape:window-x="-8"
     inkscape:window-y="-8"
     inkscape:window-maximized="1"
     inkscape:current-layer="svg4" />
  <path
     d="M4 0c-2.2 0-4 1.8-4 4s1.8 4 4 4c1.1 0 2.12-.43 2.84-1.16l-.72-.72c-.54.54-1.29.88-2.13.88-1.66 0-3-1.34-3-3s1.34-3 3-3c.83 0 1.55.36 2.09.91l-1.09 1.09h3v-3l-1.19 1.19c-.72-.72-1.71-1.19-2.81-1.19z"
     id="path2" />
  <path
     style="fill:#ffffff;stroke-width:0.0122699"
     d="M 3.791411,7.9867579 C 2.1136009,7.9022091 0.6384464,6.7328735 0.16681276,5.1135864 0.05230521,4.720441 0.0136511,4.4394001 0.0136511,4 c 0,-0.3478702 0.01405954,-0.5014702 0.07198785,-0.7864643 C 0.41351055,1.600482 1.7231193,0.33185558 3.3380735,0.06288129 c 0.4481416,-0.07463901 0.9417913,-0.0705745 1.3666427,0.01125238 0.7283481,0.14028071 1.4444732,0.50780968 1.9773696,1.01482343 0.058517,0.055675 0.1111737,0.1012269 0.1170149,0.1012269 0.00584,0 0.2742921,-0.26362869 0.5965573,-0.5858416 L 7.9815951,0.01850077 V 1.5061829 2.993865 H 6.4939173 5.0062395 L 5.5429971,2.4570036 C 5.8382137,2.1617297 6.0797546,1.9141591 6.0797546,1.9068469 6.0797546,1.8802326 5.8029088,1.6417394 5.6343361,1.523134 5.2525247,1.2544968 4.8273917,1.0861192 4.3558282,1.0167698 4.2111448,0.99549231 3.7653442,0.99535923 3.6134969,1.0165482 2.926894,1.1123579 2.3402342,1.3997147 1.8677712,1.8716372 1.5019306,2.2370594 1.2354438,2.6886994 1.1001693,3.1725643 1.0144919,3.4790248 0.99386503,3.6395772 0.99386503,4 c 0,0.3604228 0.0206269,0.5209752 0.10630427,0.8274357 0.1971582,0.7052174 0.6836092,1.3493627 1.3048332,1.7278247 0.376951,0.2296461 0.760255,0.3653927 1.2084944,0.4279867 0.1740827,0.02431 0.6218935,0.021064 0.797546,-0.00578 C 5.0406733,6.881244 5.5980665,6.617185 6.0356931,6.2078067 l 0.082506,-0.07718 0.3557924,0.3549321 0.3557924,0.354932 -0.1020084,0.096373 c -0.6435788,0.608025 -1.5728273,1.0040607 -2.4517019,1.044889 -0.077607,0.00361 -0.1769938,0.00829 -0.2208589,0.010417 -0.043865,0.00212 -0.1625767,-3.117e-4 -0.2638037,-0.00541 z"
     id="path862" />
</svg>
